<svg xmlns="http://www.w3.org/2000/svg" xmlns:xlink="http://www.w3.org/1999/xlink" width="17" height="17" viewBox="0 0 17 17"><defs><path id="8me5a" d="M687 754a.54.54 0 0 1-.397-.174l-6.395-6.915-.004-.006c-.777-.862-1.204-2.005-1.204-3.218s.427-2.356 1.204-3.218l.097-.108c.79-.878 1.845-1.361 2.97-1.361 1.126 0 2.18.483 2.97 1.361l.759.842.758-.842c.79-.878 1.845-1.361 2.97-1.361 1.126 0 2.181.483 2.971 1.361l.097.108c.776.862 1.204 2.005 1.204 3.218s-.428 2.356-1.204 3.218l-.005.006-6.394 6.915A.54.54 0 0 1 687 754zm-5.995-7.826l5.995 6.484 5.995-6.484c1.234-1.373 1.233-3.605-.002-4.977l-.097-.108c-.583-.647-1.352-1.003-2.168-1.003-.815 0-1.585.356-2.167 1.003l-1.16 1.289a.542.542 0 0 1-.803 0l-1.16-1.289c-.582-.647-1.351-1.003-2.167-1.003-.815 0-1.585.356-2.167 1.003l-.097.108c-1.235 1.372-1.236 3.604-.002 4.977z"/></defs><g><g transform="translate(-678 -738)"><use fill="#fff" xlink:href="#8me5a"/><use fill="#fff" fill-opacity="0" stroke="#fff" stroke-linecap="round" stroke-linejoin="round" stroke-miterlimit="50" xlink:href="#8me5a"/></g></g></svg>