<svg xmlns="http://www.w3.org/2000/svg" xmlns:xlink="http://www.w3.org/1999/xlink" width="22" height="12" viewBox="0 0 22 12"><defs><path id="wunma" d="M631.701 747.179a.94.94 0 0 0-1.363 0l-1.352 1.403v-7.581c0-.553-.432-1.001-.965-1.001h-9.439c-.532 0-.964.448-.964 1 0 .554.432 1.002.964 1.002h8.475v6.58l-1.352-1.404a.94.94 0 0 0-1.364 0 1.028 1.028 0 0 0 0 1.416l2.998 3.111a.947.947 0 0 0 .682.294.948.948 0 0 0 .682-.294l2.999-3.111a1.027 1.027 0 0 0 0-1.415zm-8.3 2.819h-8.475v-6.58l1.352 1.403a.943.943 0 0 0 1.364 0 1.028 1.028 0 0 0 0-1.415l-2.999-3.113a.947.947 0 0 0-.682-.293.947.947 0 0 0-.682.293l-2.998 3.113a1.028 1.028 0 0 0 0 1.415.94.94 0 0 0 1.364 0l1.353-1.403v7.58c0 .553.431 1.002.964 1.002h9.44c.532 0 .963-.449.963-1.001 0-.553-.431-1.001-.964-1.001z"/></defs><g><g transform="translate(-610 -740)"><use fill="#fff" xlink:href="#wunma"/></g></g></svg>